<svg xmlns="http://www.w3.org/2000/svg" viewBox="0 0 800 600" width="800" height="600">
  <!-- Background -->
  <rect width="100%" height="100%" fill="#f5f5f5"/>
  
  <!-- Conference room table -->
  <rect x="100" y="350" width="600" height="20" fill="#8b4513" rx="5" ry="5"/>
  <rect x="100" y="370" width="600" height="10" fill="#6b3100" rx="2" ry="2"/>
  
  <!-- Table reflection -->
  <rect x="100" y="380" width="600" height="10" fill="rgba(139, 69, 19, 0.3)" rx="2" ry="2"/>
  
  <!-- Window background -->
  <rect x="50" y="50" width="700" height="250" fill="#e0e8f0"/>
  <rect x="100" y="80" width="600" height="200" fill="#c0d0e0"/>
  
  <!-- Window frames -->
  <rect x="50" y="50" width="700" height="10" fill="#a0a0a0"/>
  <rect x="50" y="50" width="10" height="250" fill="#a0a0a0"/>
  <rect x="740" y="50" width="10" height="250" fill="#a0a0a0"/>
  <rect x="50" y="290" width="700" height="10" fill="#a0a0a0"/>
  <rect x="350" y="50" width="10" height="250" fill="#a0a0a0"/>
  
  <!-- Presentation board -->
  <rect x="350" y="100" width="200" height="150" fill="white" stroke="#d0d0d0" stroke-width="5"/>
  
  <!-- Pie chart on board -->
  <circle cx="450" cy="175" r="50" fill="none" stroke="#333" stroke-width="2"/>
  <path d="M450 175 L450 125 A50 50 0 0 1 495 195 Z" fill="#4a90e2"/>
  <path d="M450 175 L495 195 A50 50 0 0 1 405 195 Z" fill="#ff6b6b"/>
  <path d="M450 175 L405 195 A50 50 0 0 1 450 125 Z" fill="#50c878"/>
  
  <!-- People silhouettes around table -->
  <!-- Person 1 (presenter) -->
  <rect x="470" y="280" width="30" height="70" fill="#333" rx="5" ry="5"/>
  <circle cx="485" cy="260" r="20" fill="#333"/>
  <rect x="475" y="350" width="20" height="30" fill="#333"/>
  
  <!-- Person 2 -->
  <rect x="150" y="400" width="30" height="40" fill="#555" rx="5" ry="5"/>
  <circle cx="165" cy="380" r="20" fill="#555"/>
  
  <!-- Person 3 -->
  <rect x="250" y="400" width="30" height="40" fill="#555" rx="5" ry="5"/>
  <circle cx="265" cy="380" r="20" fill="#555"/>
  
  <!-- Person 4 -->
  <rect x="350" y="400" width="30" height="40" fill="#555" rx="5" ry="5"/>
  <circle cx="365" cy="380" r="20" fill="#555"/>
  
  <!-- Person 5 -->
  <rect x="450" y="400" width="30" height="40" fill="#555" rx="5" ry="5"/>
  <circle cx="465" cy="380" r="20" fill="#555"/>
  
  <!-- Person 6 -->
  <rect x="550" y="400" width="30" height="40" fill="#555" rx="5" ry="5"/>
  <circle cx="565" cy="380" r="20" fill="#555"/>
  
  <!-- Person 7 -->
  <rect x="650" y="400" width="30" height="40" fill="#555" rx="5" ry="5"/>
  <circle cx="665" cy="380" r="20" fill="#555"/>
  
  <!-- Water glasses on table -->
  <rect x="165" y="330" width="10" height="20" fill="rgba(173, 216, 230, 0.5)" rx="2" ry="2"/>
  <rect x="265" y="330" width="10" height="20" fill="rgba(173, 216, 230, 0.5)" rx="2" ry="2"/>
  <rect x="365" y="330" width="10" height="20" fill="rgba(173, 216, 230, 0.5)" rx="2" ry="2"/>
  <rect x="465" y="330" width="10" height="20" fill="rgba(173, 216, 230, 0.5)" rx="2" ry="2"/>
  <rect x="565" y="330" width="10" height="20" fill="rgba(173, 216, 230, 0.5)" rx="2" ry="2"/>
  <rect x="665" y="330" width="10" height="20" fill="rgba(173, 216, 230, 0.5)" rx="2" ry="2"/>
  
  <!-- Reflection on table -->
  <rect x="350" y="330" width="200" height="20" fill="rgba(255, 255, 255, 0.1)" rx="5" ry="5"/>
</svg>